<?xml version="1.0" standalone="no"?>
<!DOCTYPE svg PUBLIC "-//W3C//DTD SVG 20010904//EN"
 "http://www.w3.org/TR/2001/REC-SVG-20010904/DTD/svg10.dtd">
<svg version="1.0" xmlns="http://www.w3.org/2000/svg"
 width="368.000000pt" height="368.000000pt" viewBox="0 0 368.000000 368.000000"
 preserveAspectRatio="xMidYMid meet">
<metadata>
Created by potrace 1.11, written by Peter Selinger 2001-2013
</metadata>
<g transform="translate(0.000000,368.000000) scale(0.100000,-0.100000)"
fill="#000000" stroke="none">
<path d="M1663 3616 c-84 -29 -153 -51 -153 -49 0 1 -20 -6 -45 -17 -25 -11
-47 -20 -50 -20 -3 0 -6 0 -7 -1 -2 0 -10 -2 -18 -4 -15 -3 -297 -95 -860
-282 l-295 -98 -1 -1050 -2 -1050 152 -59 c83 -33 171 -67 196 -76 113 -43
627 -242 645 -251 18 -8 212 -83 462 -179 185 -72 288 -111 308 -120 11 -4 40
-16 65 -25 25 -9 59 -23 75 -30 17 -7 80 -32 140 -55 61 -23 119 -46 130 -50
56 -24 462 -179 475 -182 12 -3 14 35 15 264 l0 266 26 24 c14 12 70 64 125
113 54 50 123 113 154 140 30 28 77 71 105 96 27 26 69 63 92 85 l43 38 0 440
c1 243 1 448 1 456 0 8 0 283 -1 612 l-2 596 -801 0 -802 -1 -2 214 c-1 118
-2 235 -2 262 -1 26 -4 47 -8 46 -5 0 -77 -24 -160 -53z m-744 -1143 c22 -22
36 -46 41 -73 l7 -40 -38 0 c-38 0 -39 1 -39 38 l0 37 -72 0 -73 0 -3 -187 -2
-188 75 2 75 2 0 35 c0 34 2 36 35 36 33 1 35 -1 35 -34 0 -27 -9 -44 -37 -73
-36 -37 -39 -38 -107 -38 -67 0 -72 1 -108 37 l-38 37 0 184 0 184 34 33 c39
37 47 40 125 40 49 0 60 -4 90 -32z m1498 28 c22 -1 23 -4 22 -93 -2 -135 -4
-126 39 -124 l37 1 -4 -38 c-3 -32 -6 -36 -25 -33 -46 8 -50 -4 -47 -127 1
-26 4 -28 31 -25 35 3 49 -12 42 -48 -4 -24 -6 -24 -108 -23 -89 1 -104 3
-105 17 0 10 -2 25 -4 35 -3 14 4 17 35 17 l38 0 2 190 1 189 -36 -3 c-29 -3
-35 0 -36 15 -1 10 -2 25 -3 32 -1 12 43 24 79 21 11 -1 30 -3 42 -3z m226 0
c14 -1 17 -11 17 -71 l0 -70 -34 0 c-33 0 -35 2 -38 38 l-3 37 -67 0 c-67 -1
-67 -1 -50 20 33 39 64 52 121 49 20 -1 44 -3 54 -3z m177 -36 c0 -33 -3 -34
-62 -26 -5 1 -8 14 -8 30 0 31 17 41 53 33 12 -3 17 -14 17 -37z m221 25 c1
-8 1 -42 1 -76 l0 -61 36 1 c33 1 36 -1 37 -31 1 -31 -1 -33 -32 -33 -40 0
-43 -9 -41 -138 l2 -94 33 4 c33 4 36 1 36 -37 0 -32 -4 -35 -36 -35 -26 0
-41 8 -68 37 l-34 38 -1 110 -1 110 -34 1 c-32 0 -34 2 -34 35 0 32 2 34 33
33 35 -1 34 -5 35 91 l0 60 34 0 c22 0 33 -5 34 -15z m-1963 -168 c3 -33 19
-43 28 -18 8 22 54 48 87 51 23 2 40 -7 72 -36 38 -35 42 -43 36 -72 -6 -27
-11 -32 -36 -32 -27 0 -30 3 -33 37 -3 37 -4 38 -41 36 l-38 -1 -1 -114 c0
-81 3 -113 11 -112 7 1 24 1 39 0 23 -1 26 -5 25 -33 l-2 -33 -107 -3 -108 -3
0 36 c0 36 8 41 60 36 13 -1 16 16 15 111 l0 113 -37 0 c-36 0 -38 2 -38 31 0
38 3 41 38 39 23 -1 27 -6 30 -33z m546 -5 l35 -36 -1 -108 0 -108 -36 -37
c-35 -37 -37 -38 -108 -37 -68 1 -73 3 -108 36 -33 33 -36 40 -37 97 -3 161
-3 158 38 197 37 34 41 35 110 34 68 -1 73 -3 107 -38z m326 34 c7 -1 5 -49
-2 -57 -4 -3 -33 -5 -66 -5 -65 0 -79 -9 -78 -49 1 -21 6 -25 37 -28 49 -4
107 -59 112 -105 3 -29 -3 -42 -33 -75 -37 -40 -39 -41 -108 -41 -73 0 -84 7
-74 52 3 17 23 20 113 19 35 -1 35 0 35 39 0 34 -3 40 -21 38 -44 -3 -56 2
-93 40 -51 53 -50 91 5 141 36 34 41 36 103 34 36 -1 67 -2 70 -3z m297 -29
c1 -35 0 -36 -99 -33 l-48 1 0 -40 c0 -40 0 -40 38 -40 53 -1 106 -55 108
-111 1 -34 -5 -44 -36 -73 -34 -30 -43 -33 -108 -35 l-72 -2 0 35 c0 40 0 40
102 36 l48 -1 -2 40 c-1 40 -2 41 -37 41 -27 0 -44 8 -73 37 -52 50 -52 91 -2
142 35 35 39 36 108 36 l71 0 2 -33z m573 -74 l0 -108 -35 -36 -35 -36 0 111
0 111 -38 0 c-37 0 -38 1 -36 33 1 17 3 32 3 32 1 0 32 0 71 0 l70 0 0 -107z
m65 -190 c2 -2 5 -16 7 -33 l3 -30 -107 -2 c-89 -2 -108 0 -109 12 -1 8 -2 23
-3 32 -1 12 8 19 28 23 31 5 176 4 181 -2z m-973 -180 c3 -7 2 -23 0 -35 -3
-18 -11 -23 -36 -23 -30 0 -32 2 -32 35 0 33 2 35 32 35 18 0 34 -5 36 -12z
m-986 -174 c19 -19 34 -43 35 -52 0 -9 1 -105 1 -213 0 -212 -2 -222 -57 -263
-19 -14 -43 -19 -92 -20 -64 -1 -68 0 -105 37 -29 29 -38 46 -38 72 0 33 2 35
35 35 34 0 35 -1 35 -37 l0 -38 73 0 72 1 0 224 0 225 -72 0 -73 0 0 -112 c0
-83 3 -113 13 -114 6 0 38 -1 71 -1 l58 0 -32 -33 c-21 -21 -44 -34 -66 -37
-29 -3 -40 2 -74 36 l-40 39 0 110 0 110 31 30 c38 36 66 44 137 40 48 -2 59
-7 88 -39z m375 -3 c45 -50 43 -93 -7 -141 -29 -29 -40 -33 -91 -34 -80 -2
-85 1 -50 35 22 22 40 31 68 32 32 1 38 5 41 28 7 48 -1 54 -79 55 l-73 0 0
-112 0 -113 73 -3 72 -3 2 -32 c1 -27 -2 -33 -20 -34 -12 0 -44 -1 -71 -2 -45
-2 -51 1 -87 40 l-38 42 0 105 c0 97 2 106 25 131 38 41 67 52 136 48 59 -2
65 -5 99 -42z m167 -139 l2 -182 -34 0 -35 0 0 177 c1 98 2 180 4 183 2 3 16
5 32 4 l28 -1 3 -181z m184 148 l38 -35 0 -146 0 -147 -34 -4 -34 -4 0 116 c0
63 0 131 -1 150 l-1 36 -70 -1 -70 -1 28 29 c51 55 91 57 144 7z m259 10 c7
-166 5 -184 -25 -217 -15 -18 -31 -33 -35 -33 -4 0 -6 46 -6 103 l0 102 -37
-1 c-37 -1 -38 0 -38 35 l0 36 70 0 c68 0 70 -1 71 -25z m207 -113 c0 -73 0
-138 1 -144 1 -9 23 -13 73 -13 l73 0 -35 -34 c-51 -50 -94 -51 -142 -4 l-37
36 -2 140 c-1 77 1 144 4 149 3 5 19 8 35 5 l30 -4 0 -131z m222 -47 l0 -178
-35 -4 -35 -4 0 181 c0 100 2 184 5 187 3 2 18 3 35 0 l30 -4 0 -178z m278
181 c7 -1 12 -15 12 -34 l0 -33 -72 0 -73 1 0 -40 c0 -39 1 -40 38 -41 29 0
46 -9 72 -34 49 -48 49 -93 -2 -143 -20 -21 -42 -37 -50 -38 -59 -3 -112 -1
-122 5 -6 4 -9 17 -7 29 3 12 5 25 5 29 1 3 20 6 44 6 91 0 93 1 95 27 1 13 3
30 4 36 2 8 -12 14 -39 15 -35 2 -48 9 -75 40 -45 51 -45 88 1 139 35 39 38
40 96 38 33 0 66 -1 73 -2z m-631 -323 c2 -14 0 -29 -5 -32 -5 -3 -53 -6 -108
-7 l-99 -3 -3 37 -3 38 107 -3 107 -3 4 -27z"/>
<path d="M1435 2175 l0 -113 78 0 77 0 0 114 0 114 -77 -1 -78 -1 0 -113z"/>
</g>
</svg>
